<svg xmlns="http://www.w3.org/2000/svg" viewBox="0 0 1614.46 484.41"><defs><style>.a{fill:#181619;}.b{fill:#de1c27;}</style></defs><title>BotHub</title><circle class="a" cx="287.23" cy="259.05" r="17.74"/><circle class="a" cx="367.84" cy="259.05" r="17.74"/><polygon class="a" points="514.11 294.48 555.15 270.78 555.15 343.24 514.11 343.24 514.11 294.48"/><path class="a" d="M314,937.19a66.29,66.29,0,0,0-34.44-26.1q22.56-20.4,22.56-49.87a78.73,78.73,0,0,0-6.93-32,74.63,74.63,0,0,0-18.28-26.09Q265.52,793.07,249,788.81q-16.33-4.24-43.84-4.27H164v274h62.64q29.12,0,46.68-5.15a74.41,74.41,0,0,0,30.71-19q22.73-22.17,22.72-54.3Q326.75,955.64,314,937.19ZM205.35,822.52H219.9q20.94,0,31.95,10t11,29.36q0,19.91-11.09,30.11t-33.46,10.19h-13Zm66.74,186.19q-13.14,11-41.18,11H205.35V936.84h20.94q33.37,0,46.33,11.88a38.64,38.64,0,0,1,13.32,29.82A38,38,0,0,1,272.09,1008.71Z" transform="translate(-164 -715.16)"/><polygon class="a" points="772.82 176.59 654.61 176.59 654.61 69.39 613.25 69.39 613.25 343.44 654.61 343.44 654.61 215.47 772.82 215.47 772.82 343.44 814.17 343.44 814.17 69.39 772.82 69.39 772.82 176.59"/><path class="b" d="M1069.32,994.13,1032,1015.66q-3.08-11.94-3.09-29.84V885.72h39.94v99.21A89.1,89.1,0,0,0,1069.32,994.13Z" transform="translate(-164 -715.16)"/><path class="a" d="M1176.61,885.72v100.1q0,21.84-5.15,35.86-5,13.47-17.21,24.31-20.24,17.58-51.47,17.57-31.07,0-51.3-17.57a65.29,65.29,0,0,1-13.67-16.2l35.13-20.29q7.66,18.38,29.84,18.39,33.9,0,33.89-43V885.72Z" transform="translate(-164 -715.16)"/><path class="a" d="M1372.21,907q-23.25-26.1-58.21-26.1-30.36,0-54.32,24.84V814.31h-39.93v244.28h39.93v-18.11q23.61,23.08,53.6,23.08,35.51,0,58.75-25.91,23.45-26.1,23.44-66Q1395.47,932.92,1372.21,907Zm-31.41,105.42q-13.66,15.45-34.43,15.45-22,0-35.51-15.45-13.48-15.08-13.48-40.29,0-24.49,13.67-39.75Q1284.88,917,1306.9,917q20.58,0,34.25,16,13.49,15.62,13.49,40.46Q1354.64,996.82,1340.8,1012.44Z" transform="translate(-164 -715.16)"/><path class="b" d="M601.61,907.69Q583.87,886,559.82,882.1l-1.83-.27H425.07c-.72.1-1.42.19-2.11.32q-23.81,3.95-41.36,25.35Q360,933.78,360,971.26q0,39.75,21.13,66,17.43,22,41.79,25.83c1.3.21,2.62.37,3.94.49l.69.07v-.07H555.46c1.47-.14,2.93-.34,4.36-.58q24.06-4,41.65-25.2Q623,1011.54,623,972.66,623,934.13,601.61,907.69ZM578.9,1013.14q-8.56,11.46-21.51,14.23H425.62q-12.9-2.77-21.6-14.4-11.13-15.11-11.13-41,0-24.13,11.42-39.41,8.81-11.74,21.77-14.46H557q13.11,2.7,21.89,14.46,11.31,15.08,11.29,40.3T578.9,1013.14Z" transform="translate(-164 -715.16)"/><path class="b" d="M435,823.85c-8.6-5.59-18-5.69-27.56-2.7-4.52,1.41-7.81,4.55-10.3,8.62.73,0,1.27.06,1.81.06,4.76,0,9.53-.17,14.27.11,5.84.35,10,3.3,12,8.45,3.36,8.53-3.2,17.17-13.13,17.38-4.45.1-8.91,0-13.36,0-.47,0-.94.05-1.58.09l1.95,2.93,3.22,3c1.94,1,3.82,2.13,5.85,2.94,4.31,1.75,8.91,1.51,13.46,1.33a25,25,0,0,0,16.53-6.84A22.47,22.47,0,0,0,435,823.85Z" transform="translate(-164 -715.16)"/><path class="b" d="M535.36,831.84c-.71.14-1.16.21-1.58.32a86.5,86.5,0,0,1-21.44,2.8c-13.56,0-27.12.16-40.68-.06a156.31,156.31,0,0,1-16-1.55c-2.32-.29-4.59-1-7.09-1.52a27.42,27.42,0,0,1,0,22c.87-.19,1.5-.3,2.11-.46a83.39,83.39,0,0,1,20.08-2.66c12.91-.07,25.81,0,38.72-.08a94.88,94.88,0,0,1,24.16,2.83c.5.13,1,.21,1.69.35A27.35,27.35,0,0,1,535.36,831.84Z" transform="translate(-164 -715.16)"/><path class="b" d="M572.48,855.79c-9.11-.08-15.26-6.46-14.28-14.79.74-6.34,6.67-11.06,14.08-11.16,4.3-.05,8.6,0,12.9,0,.49,0,1,0,1.66-.05a20.81,20.81,0,0,0-11-9c-3.91-1.48-8-1.43-12.12-1.37-8,.12-14.55,2.95-19.68,8.82-10.92,12.49-4.63,32.12,11.86,36.81a38.75,38.75,0,0,0,15.64.77c6.74-.86,11.59-4.52,15.42-10.08C581.88,855.78,577.18,855.82,572.48,855.79Z" transform="translate(-164 -715.16)"/><path class="b" d="M1432.16,1045.44a25.7,25.7,0,0,1,51.4.18,24.91,24.91,0,0,1-7.59,18.3,26.11,26.11,0,0,1-36.42,0A25.05,25.05,0,0,1,1432.16,1045.44Z" transform="translate(-164 -715.16)"/><path class="b" d="M1524.51,811.17a27.15,27.15,0,0,1,27-26.81,26.27,26.27,0,0,1,19.23,7.95,25.64,25.64,0,0,1,8,19.05,26.23,26.23,0,0,1-8,19.23,25.61,25.61,0,0,1-19,7.95,27.14,27.14,0,0,1-27.18-27.37Zm47.89,74.89v180.08h-41.6V886.06Z" transform="translate(-164 -715.16)"/><path class="b" d="M1613.36,886.06h41.78V902.7q21.81-21.65,49.18-21.64,31.44,0,49,19.79,15.17,16.83,15.16,54.91v110.38H1726.7V965.43q0-26.65-7.4-36.84-7.21-10.37-26.26-10.36-20.7,0-29.39,13.7-8.51,13.52-8.51,47.2v87h-41.78Z" transform="translate(-164 -715.16)"/><path class="b" d="M1201.74,795.75a11.79,11.79,0,0,1-7.35-21,76.63,76.63,0,0,1,27-12.8c15-3.89,38.14-5.16,63.41,10.92a11.77,11.77,0,0,1-12.64,19.86c-34.07-21.67-62-.47-63.13.44A11.65,11.65,0,0,1,1201.74,795.75Z" transform="translate(-164 -715.16)"/><path class="b" d="M1174.71,762.05a11.77,11.77,0,0,1-7.69-20.69c.68-.59,17.1-14.58,43.09-21.87,24.09-6.75,61.36-9,102.08,18.91a11.77,11.77,0,0,1-13.3,19.43c-63.35-43.36-116,.9-116.49,1.36A11.73,11.73,0,0,1,1174.71,762.05Z" transform="translate(-164 -715.16)"/><polygon class="a" points="555.15 107.79 555.15 252.72 514.11 276.42 514.11 133.14 555.15 107.79"/><rect class="a" x="484.94" y="175.83" width="99.71" height="39.68"/><path class="a" d="M1027.88,1125.43h-24.73v14.83h24V1149h-24v20.62h24.73v8.76H993.83v-61.71h34.05Z" transform="translate(-164 -715.16)"/><path class="a" d="M1047.93,1157.33l-14-17.87h10.71l8.67,11.35,8.83-11.35h11l-14.39,17.87,16.67,21.06h-10.71l-11.43-14.55-11.71,14.55h-11Z" transform="translate(-164 -715.16)"/><path class="a" d="M1088,1199.57h-9v-60.11h9v4.24a16.6,16.6,0,0,1,12.07-5.32,16.83,16.83,0,0,1,13.23,5.92q5.26,5.87,5.27,14.82a21,21,0,0,1-5.23,14.59,17.07,17.07,0,0,1-25.34.32Zm21.38-40.41a13.42,13.42,0,0,0-3-9.11,9.8,9.8,0,0,0-7.75-3.55,10.27,10.27,0,0,0-8,3.43,13,13,0,0,0-3.08,9,13.31,13.31,0,0,0,3.08,9,10.11,10.11,0,0,0,8,3.47,9.74,9.74,0,0,0,7.71-3.51A12.79,12.79,0,0,0,1109.37,1159.16Z" transform="translate(-164 -715.16)"/><path class="a" d="M1161,1161h-27.89a11.8,11.8,0,0,0,3.12,7.63,9.46,9.46,0,0,0,7.07,2.8,9.14,9.14,0,0,0,5.55-1.6,22.57,22.57,0,0,0,4.92-5.91l7.59,4.24a30.43,30.43,0,0,1-3.71,5.13,19.85,19.85,0,0,1-4.2,3.52,16.82,16.82,0,0,1-4.84,2,23.85,23.85,0,0,1-5.63.63q-8.71,0-14-5.59t-5.27-15q0-9.23,5.11-14.94t13.67-5.64q8.6,0,13.59,5.48t5,15.06Zm-9.23-7.35q-1.87-7.2-9.07-7.19a9.42,9.42,0,0,0-3.08.49,9.17,9.17,0,0,0-2.62,1.44,9.29,9.29,0,0,0-2,2.26,10.41,10.41,0,0,0-1.28,3Z" transform="translate(-164 -715.16)"/><path class="a" d="M1168.28,1139.46h9v3.48a17.18,17.18,0,0,1,4.39-3.56,10.18,10.18,0,0,1,4.64-1,14.56,14.56,0,0,1,7.43,2.32l-4.11,8.23a8.64,8.64,0,0,0-5-1.84q-7.35,0-7.35,11.11v20.19h-9Z" transform="translate(-164 -715.16)"/><path class="a" d="M1195,1123.28a5.87,5.87,0,0,1,5.84-5.8,5.63,5.63,0,0,1,4.15,1.72,5.52,5.52,0,0,1,1.72,4.12,5.63,5.63,0,0,1-1.72,4.15,5.51,5.51,0,0,1-4.11,1.72,5.87,5.87,0,0,1-5.88-5.91Zm10.35,16.18v38.93h-9v-38.93Z" transform="translate(-164 -715.16)"/><path class="a" d="M1249.64,1161h-27.89a11.84,11.84,0,0,0,3.11,7.63,9.5,9.5,0,0,0,7.08,2.8,9.14,9.14,0,0,0,5.55-1.6,22.57,22.57,0,0,0,4.92-5.91l7.59,4.24a30.43,30.43,0,0,1-3.71,5.13,19.85,19.85,0,0,1-4.2,3.52,16.94,16.94,0,0,1-4.84,2,23.85,23.85,0,0,1-5.63.63q-8.71,0-14-5.59t-5.27-15q0-9.23,5.11-14.94t13.67-5.64q8.59,0,13.59,5.48t5,15.06Zm-9.23-7.35q-1.87-7.2-9.07-7.19a9.42,9.42,0,0,0-3.08.49,9.17,9.17,0,0,0-2.62,1.44,9.29,9.29,0,0,0-2,2.26,10.41,10.41,0,0,0-1.28,3Z" transform="translate(-164 -715.16)"/><path class="a" d="M1256.94,1139.46h9v3.6a14.71,14.71,0,0,1,10.63-4.68q6.8,0,10.59,4.28,3.27,3.63,3.27,11.87v23.86h-9v-21.77c0-3.84-.53-6.5-1.6-8s-2.93-2.24-5.67-2.24c-3,0-5.1,1-6.35,3s-1.84,5.34-1.84,10.2v18.81h-9Z" transform="translate(-164 -715.16)"/><path class="a" d="M1329.57,1141.14v11.95a21.88,21.88,0,0,0-5.52-5.16,10.69,10.69,0,0,0-5.63-1.43,11.11,11.11,0,0,0-8.43,3.55,12.46,12.46,0,0,0-3.36,8.91,12.78,12.78,0,0,0,3.24,9,10.92,10.92,0,0,0,8.35,3.51,11.32,11.32,0,0,0,5.71-1.4,22.54,22.54,0,0,0,5.64-5.27v11.87a23.62,23.62,0,0,1-11,2.83,21,21,0,0,1-15.11-5.83,19.48,19.48,0,0,1-6.07-14.59,19.73,19.73,0,0,1,6.15-14.7,20.83,20.83,0,0,1,15.11-6A22.55,22.55,0,0,1,1329.57,1141.14Z" transform="translate(-164 -715.16)"/><path class="a" d="M1371.19,1161H1343.3a11.84,11.84,0,0,0,3.11,7.63,9.5,9.5,0,0,0,7.08,2.8,9.14,9.14,0,0,0,5.55-1.6A22.57,22.57,0,0,0,1364,1164l7.59,4.24a29.9,29.9,0,0,1-3.72,5.13,19.55,19.55,0,0,1-4.19,3.52,16.94,16.94,0,0,1-4.84,2,23.85,23.85,0,0,1-5.63.63q-8.72,0-14-5.59t-5.27-15q0-9.23,5.11-14.94t13.67-5.64q8.6,0,13.59,5.48t5,15.06Zm-9.23-7.35q-1.87-7.2-9.07-7.19a9.42,9.42,0,0,0-3.08.49,9.17,9.17,0,0,0-2.62,1.44,9.29,9.29,0,0,0-2,2.26,10.41,10.41,0,0,0-1.28,3Z" transform="translate(-164 -715.16)"/><path class="b" d="M1412.24,1116.68v61.71h-9.32v-61.71Z" transform="translate(-164 -715.16)"/><path class="b" d="M1422.81,1139.46h9v3.6a14.71,14.71,0,0,1,10.63-4.68q6.79,0,10.59,4.28,3.27,3.63,3.27,11.87v23.86h-9v-21.77c0-3.84-.53-6.5-1.6-8s-2.93-2.24-5.67-2.24c-3,0-5.1,1-6.35,3s-1.84,5.34-1.84,10.2v18.81h-9Z" transform="translate(-164 -715.16)"/><path class="b" d="M1465.15,1139.46h9v3.6a14.73,14.73,0,0,1,10.63-4.68q6.8,0,10.59,4.28,3.27,3.63,3.28,11.87v23.86h-9v-21.77c0-3.84-.53-6.5-1.59-8s-2.93-2.24-5.68-2.24c-3,0-5.1,1-6.35,3s-1.84,5.34-1.84,10.2v18.81h-9Z" transform="translate(-164 -715.16)"/><path class="b" d="M1505.65,1158.64a19.3,19.3,0,0,1,6-14.34,21.27,21.27,0,0,1,29.49,0,20.85,20.85,0,0,1,0,29.29,20.61,20.61,0,0,1-14.91,5.87,19.75,19.75,0,0,1-14.66-6A20.14,20.14,0,0,1,1505.65,1158.64Zm9.19.16q0,5.84,3.12,9.24a12.13,12.13,0,0,0,16.86,0,14.61,14.61,0,0,0,0-18.15,12,12,0,0,0-16.78,0A12.51,12.51,0,0,0,1514.84,1158.8Z" transform="translate(-164 -715.16)"/><path class="b" d="M1559,1139.46l10.07,21.86,10-21.86h10.11l-20.22,41.6-20.06-41.6Z" transform="translate(-164 -715.16)"/><path class="b" d="M1621.42,1139.46h9v38.93h-9v-4.08q-5.55,5.19-11.94,5.19a17.21,17.21,0,0,1-13.35-5.83,21.7,21.7,0,0,1-5.24-14.87,21,21,0,0,1,5.24-14.58,16.88,16.88,0,0,1,13.11-5.84q6.79,0,12.18,5.6Zm-21.34,19.34a13.58,13.58,0,0,0,3,9.12,9.82,9.82,0,0,0,7.75,3.55,10.32,10.32,0,0,0,8.08-3.43,14.83,14.83,0,0,0,0-18.07,10.16,10.16,0,0,0-8-3.47,10,10,0,0,0-7.76,3.51A13,13,0,0,0,1600.08,1158.8Z" transform="translate(-164 -715.16)"/><path class="b" d="M1648.54,1147.85v30.54h-9v-30.54h-3.84v-8.39h3.84v-14.27h9v14.27h7v8.39Z" transform="translate(-164 -715.16)"/><path class="b" d="M1657.75,1123.28a5.85,5.85,0,0,1,10-4.08,5.52,5.52,0,0,1,1.72,4.12,5.63,5.63,0,0,1-1.72,4.15,5.51,5.51,0,0,1-4.11,1.72,5.65,5.65,0,0,1-4.16-1.72A5.71,5.71,0,0,1,1657.75,1123.28Zm10.35,16.18v38.93h-9v-38.93Z" transform="translate(-164 -715.16)"/><path class="b" d="M1675.12,1158.64a19.33,19.33,0,0,1,6-14.34,21.27,21.27,0,0,1,29.49,0,20.82,20.82,0,0,1,0,29.29,20.59,20.59,0,0,1-14.9,5.87,19.76,19.76,0,0,1-14.67-6A20.17,20.17,0,0,1,1675.12,1158.64Zm9.19.16q0,5.84,3.12,9.24a12.13,12.13,0,0,0,16.86,0,14.61,14.61,0,0,0,0-18.15,12,12,0,0,0-16.79,0A12.51,12.51,0,0,0,1684.31,1158.8Z" transform="translate(-164 -715.16)"/><path class="b" d="M1723.61,1139.46h9v3.6a14.75,14.75,0,0,1,10.64-4.68q6.78,0,10.59,4.28,3.27,3.63,3.27,11.87v23.86h-9v-21.77c0-3.84-.53-6.5-1.6-8s-2.93-2.24-5.67-2.24c-3,0-5.1,1-6.36,3s-1.84,5.34-1.84,10.2v18.81h-9Z" transform="translate(-164 -715.16)"/><path class="b" d="M1767.35,1173.91a5.57,5.57,0,1,1,5.56,5.59,5.39,5.39,0,0,1-4-1.59A5.46,5.46,0,0,1,1767.35,1173.91Z" transform="translate(-164 -715.16)"/></svg>